<?xml version="1.0" encoding="utf-8"?>
<!-- Generator: Adobe Illustrator 24.2.1, SVG Export Plug-In . SVG Version: 6.00 Build 0)  -->
<svg version="1.1" id="Layer_1" xmlns="http://www.w3.org/2000/svg" xmlns:xlink="http://www.w3.org/1999/xlink" x="0px" y="0px"
	 viewBox="0 0 300 66" style="enable-background:new 0 0 300 66;" xml:space="preserve">
<g>
	<g>
		<path d="M79.86,8.1c-14.65,0-26.5,11.14-26.5,24.9c0,13.75,11.85,24.9,26.5,24.9c14.64,0,26.51-11.15,26.51-24.9
			C106.37,19.24,94.49,8.1,79.86,8.1z M79.86,51.24c-9.8,0-17.72-8.19-17.72-18.29c0-10.11,7.92-18.29,17.72-18.29
			c9.78,0,17.71,8.18,17.71,18.29C97.57,43.05,89.64,51.24,79.86,51.24z"/>
		<path d="M243.08,48.64h-21.95V35.08h19.42c1.92,0,3.5-1.55,3.5-3.48c0-1.93-1.57-3.5-3.5-3.5h-19.42V16.99h21.95
			c1.94,0,3.49-1.56,3.49-3.49c0-1.93-1.55-3.5-3.49-3.5h-27.31v0.04c-1.93,0-3.49,1.57-3.49,3.5v38.59c0,1.91,1.56,3.48,3.49,3.48
			h27.31c1.94,0,3.49-1.56,3.49-3.48C246.57,50.2,245.02,48.64,243.08,48.64z"/>
		<path d="M157.55,25.19c0.99,0,1.8-0.81,1.8-1.8c0-0.47-0.18-0.77-0.18-0.77c-4.19-8.57-13.4-14.52-24.09-14.52
			c-14.64,0-26.51,11.14-26.51,24.9c0,13.75,11.87,24.9,26.51,24.9c11.48,0,21.27-6.87,24.96-16.48h-0.01c0,0,0.18-0.29,0.18-0.77
			c0-0.99-0.81-1.8-1.8-1.8h-5.61c-0.47,0-0.93,0.4-1.22,0.9c-0.05,0.03-0.13,0.2-0.14,0.25c-2.68,6.59-8.99,11.23-16.36,11.23
			c-9.8,0-17.73-8.19-17.73-18.29c0-10.11,7.93-18.29,17.73-18.29c6.71,0,12.56,3.86,15.56,9.53c0.3,0.53,0.8,1.01,1.31,1.01H157.55
			"/>
		<path d="M14.74,39.22c-0.19-0.79-0.89-1.36-1.73-1.36H8.8c-0.99,0-1.8,0.8-1.8,1.79v0.82c0,9.55,8.63,17.43,21.94,17.43
			c12.13,0,22.09-5.92,22.09-22.6V11.84c0-0.99-0.8-1.79-1.81-1.79h-5.26c-0.99,0-1.8,0.81-1.8,1.79V35.3h0.01
			c0,10.9-5.05,15.89-13.23,15.89c-6.87,0-14.18-4.86-14.18-11.86L14.74,39.22z"/>
		<path d="M291.02,10.04h-5.71c-1,0-2.27,0.81-2.87,1.79l-12.6,18.71l-11.14-18.71c-0.58-0.99-1.87-1.79-2.86-1.79h-5.04
			c-1.94,0-2.55,1.57-1.41,3.5l16.45,26.1v12.49c0,1.91,1.57,3.48,3.49,3.48h1.89c1.93,0,3.49-1.56,3.49-3.48v-12.8l17.71-25.79
			C293.58,11.61,292.95,10.04,291.02,10.04z"/>
		<path d="M209,52.94l-18.45-27.14l12.64-13c1.42-1.57,0.76-2.76-0.32-2.76h-6.33c-1.35,0-1.9,0.5-3.26,1.86l-19.8,19.73v-19.8
			c0-0.99-0.81-1.79-1.81-1.79h-3.19c0,0-3.86,0.03-3.86,6.14l-0.01,37.64c0,0.98,0.8,1.78,1.8,1.78h2.22
			c2.68,0,4.85-2.16,4.85-4.84v-7.38l10.78-11.1l14.81,21.44c0.56,0.82,1.41,1.88,2.31,1.88h5.26
			C209.18,55.61,210.08,54.53,209,52.94z"/>
	</g>
	<g>
		<path d="M282.07,51.05c1.23,0,2.2,0.99,2.2,2.24c0,1.27-0.97,2.26-2.22,2.26c-1.21,0-2.22-0.99-2.22-2.26
			c0-1.25,1.01-2.24,2.22-2.24H282.07z M282.05,51.4c-0.99,0-1.79,0.86-1.79,1.9c0,1.07,0.79,1.91,1.81,1.91
			c1,0.01,1.79-0.84,1.79-1.9c0-1.05-0.8-1.91-1.79-1.91H282.05z M281.64,54.6h-0.39v-2.5c0.2-0.04,0.41-0.06,0.7-0.06
			c0.38,0,0.63,0.08,0.78,0.18c0.16,0.12,0.24,0.3,0.24,0.53c0,0.32-0.22,0.53-0.5,0.61v0.02c0.23,0.04,0.37,0.24,0.42,0.61
			c0.08,0.39,0.13,0.54,0.17,0.62h-0.43c-0.06-0.08-0.11-0.31-0.16-0.63c-0.06-0.33-0.22-0.44-0.54-0.44h-0.28V54.6z M281.64,53.22
			h0.3c0.32,0,0.6-0.13,0.6-0.43c0-0.23-0.16-0.44-0.6-0.44c-0.14,0-0.23,0.01-0.3,0.02V53.22z"/>
	</g>
</g>
</svg>
